<mxfile host="Electron" agent="Mozilla/5.0 (X11; Linux x86_64) AppleWebKit/537.36 (KHTML, like Gecko) draw.io/26.0.7 Chrome/128.0.6613.186 Electron/32.2.5 Safari/537.36" version="26.0.7">
  <diagram name="Страница — 1" id="Og2O6v1_8cmMjE4YKY-o">
    <mxGraphModel dx="989" dy="670" grid="1" gridSize="10" guides="1" tooltips="1" connect="1" arrows="1" fold="1" page="1" pageScale="1" pageWidth="827" pageHeight="1169" math="0" shadow="0">
      <root>
        <mxCell id="0" />
        <mxCell id="1" parent="0" />
        <mxCell id="f9OrkrOD7GsaYfjVP4bd-9" value="" style="group" parent="1" vertex="1" connectable="0">
          <mxGeometry x="430" y="294.5" width="101" height="53" as="geometry" />
        </mxCell>
        <mxCell id="f9OrkrOD7GsaYfjVP4bd-2" value="" style="shape=mxgraph.cisco.switches.workgroup_switch;sketch=0;html=1;pointerEvents=1;dashed=0;fillColor=#036897;strokeColor=#ffffff;strokeWidth=2;verticalLabelPosition=bottom;verticalAlign=top;align=center;outlineConnect=0;" parent="f9OrkrOD7GsaYfjVP4bd-9" vertex="1">
          <mxGeometry y="-1" width="101" height="50" as="geometry" />
        </mxCell>
        <mxCell id="f9OrkrOD7GsaYfjVP4bd-8" value="&lt;b&gt;&lt;font color=&quot;#ffffff&quot; style=&quot;font-size: 14px;&quot;&gt;S2&lt;/font&gt;&lt;/b&gt;" style="text;html=1;align=center;verticalAlign=middle;whiteSpace=wrap;rounded=0;" parent="f9OrkrOD7GsaYfjVP4bd-9" vertex="1">
          <mxGeometry x="10" y="20" width="60" height="30" as="geometry" />
        </mxCell>
        <mxCell id="f9OrkrOD7GsaYfjVP4bd-11" value="" style="group" parent="1" vertex="1" connectable="0">
          <mxGeometry x="110" y="291" width="78" height="57" as="geometry" />
        </mxCell>
        <mxCell id="f9OrkrOD7GsaYfjVP4bd-3" value="" style="shape=mxgraph.cisco.routers.router;sketch=0;html=1;pointerEvents=1;dashed=0;fillColor=#036897;strokeColor=#ffffff;strokeWidth=2;verticalLabelPosition=bottom;verticalAlign=top;align=center;outlineConnect=0;" parent="f9OrkrOD7GsaYfjVP4bd-11" vertex="1">
          <mxGeometry width="78" height="53" as="geometry" />
        </mxCell>
        <mxCell id="f9OrkrOD7GsaYfjVP4bd-10" value="&lt;b&gt;&lt;font color=&quot;#ffffff&quot; style=&quot;font-size: 14px;&quot;&gt;R1&lt;/font&gt;&lt;/b&gt;" style="text;html=1;align=center;verticalAlign=middle;whiteSpace=wrap;rounded=0;" parent="f9OrkrOD7GsaYfjVP4bd-11" vertex="1">
          <mxGeometry x="9" y="27" width="60" height="30" as="geometry" />
        </mxCell>
        <mxCell id="f9OrkrOD7GsaYfjVP4bd-13" value="&lt;b&gt;&lt;font style=&quot;font-size: 14px;&quot;&gt;F0/5&lt;/font&gt;&lt;/b&gt;" style="text;html=1;align=center;verticalAlign=middle;whiteSpace=wrap;rounded=0;" parent="1" vertex="1">
          <mxGeometry x="213" y="313.5" width="60" height="30" as="geometry" />
        </mxCell>
        <mxCell id="f9OrkrOD7GsaYfjVP4bd-16" value="&lt;b&gt;&lt;font style=&quot;font-size: 14px;&quot;&gt;G/0/0/1&lt;/font&gt;&lt;/b&gt;" style="text;html=1;align=center;verticalAlign=middle;whiteSpace=wrap;rounded=0;" parent="1" vertex="1">
          <mxGeometry x="185" y="288.5" width="60" height="34" as="geometry" />
        </mxCell>
        <mxCell id="2piaRRsvQxlYRXwN0LXb-4" value="&lt;b&gt;&lt;font style=&quot;font-size: 14px;&quot;&gt;F0/5&lt;/font&gt;&lt;/b&gt;" style="text;html=1;align=center;verticalAlign=middle;whiteSpace=wrap;rounded=0;" parent="1" vertex="1">
          <mxGeometry x="517" y="294.5" width="60" height="30" as="geometry" />
        </mxCell>
        <mxCell id="2piaRRsvQxlYRXwN0LXb-20" value="&lt;b&gt;&lt;font style=&quot;font-size: 14px;&quot;&gt;F0/1&lt;/font&gt;&lt;/b&gt;" style="text;html=1;align=center;verticalAlign=middle;whiteSpace=wrap;rounded=0;" parent="1" vertex="1">
          <mxGeometry x="386" y="313.5" width="60" height="30" as="geometry" />
        </mxCell>
        <mxCell id="2piaRRsvQxlYRXwN0LXb-24" value="" style="endArrow=none;html=1;rounded=0;strokeWidth=3;entryX=0.008;entryY=0.437;entryDx=0;entryDy=0;entryPerimeter=0;" parent="1" source="f9OrkrOD7GsaYfjVP4bd-3" target="2piaRRsvQxlYRXwN0LXb-2" edge="1">
          <mxGeometry width="50" height="50" relative="1" as="geometry">
            <mxPoint x="280" y="210" as="sourcePoint" />
            <mxPoint x="240" y="320" as="targetPoint" />
          </mxGeometry>
        </mxCell>
        <mxCell id="2piaRRsvQxlYRXwN0LXb-27" value="" style="endArrow=none;html=1;rounded=0;entryX=0;entryY=0.5;entryDx=0;entryDy=0;entryPerimeter=0;strokeWidth=3;" parent="1" source="2piaRRsvQxlYRXwN0LXb-2" target="f9OrkrOD7GsaYfjVP4bd-2" edge="1">
          <mxGeometry width="50" height="50" relative="1" as="geometry">
            <mxPoint x="400" y="260" as="sourcePoint" />
            <mxPoint x="498" y="260" as="targetPoint" />
          </mxGeometry>
        </mxCell>
        <mxCell id="f9OrkrOD7GsaYfjVP4bd-12" value="&lt;b&gt;&lt;font style=&quot;font-size: 14px;&quot;&gt;F0/1&lt;/font&gt;&lt;/b&gt;" style="text;html=1;align=center;verticalAlign=middle;whiteSpace=wrap;rounded=0;" parent="1" vertex="1">
          <mxGeometry x="346" y="293.5" width="60" height="30" as="geometry" />
        </mxCell>
        <mxCell id="FiaJFKsjIP4AauUNehaB-2" value="" style="group" vertex="1" connectable="0" parent="1">
          <mxGeometry x="258.5" y="294.5" width="101" height="53" as="geometry" />
        </mxCell>
        <mxCell id="2piaRRsvQxlYRXwN0LXb-2" value="" style="shape=mxgraph.cisco.switches.workgroup_switch;sketch=0;html=1;pointerEvents=1;dashed=0;fillColor=#036897;strokeColor=#ffffff;strokeWidth=2;verticalLabelPosition=bottom;verticalAlign=top;align=center;outlineConnect=0;" parent="FiaJFKsjIP4AauUNehaB-2" vertex="1">
          <mxGeometry width="101" height="50" as="geometry" />
        </mxCell>
        <mxCell id="2piaRRsvQxlYRXwN0LXb-3" value="&lt;b&gt;&lt;font color=&quot;#ffffff&quot; style=&quot;font-size: 14px;&quot;&gt;S1&lt;/font&gt;&lt;/b&gt;" style="text;html=1;align=center;verticalAlign=middle;whiteSpace=wrap;rounded=0;" parent="FiaJFKsjIP4AauUNehaB-2" vertex="1">
          <mxGeometry x="11.5" y="23" width="60" height="30" as="geometry" />
        </mxCell>
        <mxCell id="FiaJFKsjIP4AauUNehaB-3" value="" style="group" vertex="1" connectable="0" parent="1">
          <mxGeometry x="610" y="292" width="78" height="58" as="geometry" />
        </mxCell>
        <mxCell id="FiaJFKsjIP4AauUNehaB-4" value="" style="shape=mxgraph.cisco.routers.router;sketch=0;html=1;pointerEvents=1;dashed=0;fillColor=#036897;strokeColor=#ffffff;strokeWidth=2;verticalLabelPosition=bottom;verticalAlign=top;align=center;outlineConnect=0;" vertex="1" parent="FiaJFKsjIP4AauUNehaB-3">
          <mxGeometry width="78" height="53.929824561403514" as="geometry" />
        </mxCell>
        <mxCell id="FiaJFKsjIP4AauUNehaB-5" value="&lt;b&gt;&lt;font color=&quot;#ffffff&quot; style=&quot;font-size: 14px;&quot;&gt;R1&lt;/font&gt;&lt;/b&gt;" style="text;html=1;align=center;verticalAlign=middle;whiteSpace=wrap;rounded=0;" vertex="1" parent="FiaJFKsjIP4AauUNehaB-3">
          <mxGeometry x="9" y="27.47368421052632" width="60" height="30.526315789473685" as="geometry" />
        </mxCell>
        <mxCell id="FiaJFKsjIP4AauUNehaB-6" value="&lt;b&gt;&lt;font style=&quot;font-size: 14px;&quot;&gt;G/0/0/1&lt;/font&gt;&lt;/b&gt;" style="text;html=1;align=center;verticalAlign=middle;whiteSpace=wrap;rounded=0;" vertex="1" parent="1">
          <mxGeometry x="555" y="312.5" width="60" height="34" as="geometry" />
        </mxCell>
        <mxCell id="FiaJFKsjIP4AauUNehaB-7" value="" style="endArrow=none;html=1;rounded=0;strokeWidth=3;exitX=0;exitY=0.5;exitDx=0;exitDy=0;exitPerimeter=0;" edge="1" parent="1" source="FiaJFKsjIP4AauUNehaB-4" target="f9OrkrOD7GsaYfjVP4bd-2">
          <mxGeometry width="50" height="50" relative="1" as="geometry">
            <mxPoint x="810" y="211.5" as="sourcePoint" />
            <mxPoint x="560" y="319" as="targetPoint" />
          </mxGeometry>
        </mxCell>
        <mxCell id="FiaJFKsjIP4AauUNehaB-8" value="" style="group" vertex="1" connectable="0" parent="1">
          <mxGeometry x="634" y="256" width="30" height="37" as="geometry" />
        </mxCell>
        <mxCell id="eAq3PG8LsDqVCl4yVl1u-1" value="" style="endArrow=none;html=1;rounded=0;strokeWidth=3;" parent="FiaJFKsjIP4AauUNehaB-8" edge="1">
          <mxGeometry width="50" height="50" relative="1" as="geometry">
            <mxPoint x="15.5" y="20" as="sourcePoint" />
            <mxPoint x="15.5" y="37" as="targetPoint" />
          </mxGeometry>
        </mxCell>
        <mxCell id="eAq3PG8LsDqVCl4yVl1u-2" value="" style="endArrow=none;html=1;rounded=0;strokeWidth=3;" parent="FiaJFKsjIP4AauUNehaB-8" edge="1">
          <mxGeometry width="50" height="50" relative="1" as="geometry">
            <mxPoint x="25.5" y="20" as="sourcePoint" />
            <mxPoint x="5.5" y="20" as="targetPoint" />
          </mxGeometry>
        </mxCell>
        <mxCell id="eAq3PG8LsDqVCl4yVl1u-3" value="&lt;b&gt;&lt;font style=&quot;font-size: 14px;&quot;&gt;Lo1&lt;/font&gt;&lt;/b&gt;" style="text;html=1;align=center;verticalAlign=middle;whiteSpace=wrap;rounded=0;direction=south;" parent="FiaJFKsjIP4AauUNehaB-8" vertex="1">
          <mxGeometry width="30" height="20" as="geometry" />
        </mxCell>
        <mxCell id="FiaJFKsjIP4AauUNehaB-9" value="" style="group" vertex="1" connectable="0" parent="1">
          <mxGeometry x="134" y="255" width="30" height="37" as="geometry" />
        </mxCell>
        <mxCell id="FiaJFKsjIP4AauUNehaB-14" value="" style="group" vertex="1" connectable="0" parent="FiaJFKsjIP4AauUNehaB-9">
          <mxGeometry width="30" height="37" as="geometry" />
        </mxCell>
        <mxCell id="FiaJFKsjIP4AauUNehaB-10" value="" style="endArrow=none;html=1;rounded=0;strokeWidth=3;" edge="1" parent="FiaJFKsjIP4AauUNehaB-14">
          <mxGeometry width="50" height="50" relative="1" as="geometry">
            <mxPoint x="15.5" y="20" as="sourcePoint" />
            <mxPoint x="15.5" y="37" as="targetPoint" />
          </mxGeometry>
        </mxCell>
        <mxCell id="FiaJFKsjIP4AauUNehaB-11" value="" style="endArrow=none;html=1;rounded=0;strokeWidth=3;" edge="1" parent="FiaJFKsjIP4AauUNehaB-14">
          <mxGeometry width="50" height="50" relative="1" as="geometry">
            <mxPoint x="25.5" y="20" as="sourcePoint" />
            <mxPoint x="5.5" y="20" as="targetPoint" />
          </mxGeometry>
        </mxCell>
        <mxCell id="FiaJFKsjIP4AauUNehaB-12" value="&lt;b&gt;&lt;font style=&quot;font-size: 14px;&quot;&gt;Lo1&lt;/font&gt;&lt;/b&gt;" style="text;html=1;align=center;verticalAlign=middle;whiteSpace=wrap;rounded=0;direction=south;" vertex="1" parent="FiaJFKsjIP4AauUNehaB-14">
          <mxGeometry width="30" height="20" as="geometry" />
        </mxCell>
      </root>
    </mxGraphModel>
  </diagram>
</mxfile>
